<mxfile host="app.diagrams.net" agent="Mozilla/5.0 (Windows NT 10.0; Win64; x64) AppleWebKit/537.36 (KHTML, like Gecko) Chrome/133.0.0.0 Safari/537.36 OPR/118.0.0.0" version="27.0.6">
  <diagram name="Página-1" id="R-ngOFO1Ade_W30doiZE">
    <mxGraphModel grid="1" page="1" gridSize="10" guides="1" tooltips="1" connect="1" arrows="1" fold="1" pageScale="1" pageWidth="2040" pageHeight="520" math="0" shadow="0">
      <root>
        <mxCell id="0" />
        <mxCell id="1" parent="0" />
        <mxCell id="azTU9I2MzFIt4tfLFUkZ-1" value="START&lt;br&gt;0xAA&lt;br&gt;[0-7]&lt;br&gt;&lt;div&gt;&lt;b&gt;8 bits&lt;/b&gt;&lt;/div&gt;" style="shape=hexagon;perimeter=hexagonPerimeter2;whiteSpace=wrap;html=1;fixedSize=1;size=20;fillStyle=auto;fillColor=default;" vertex="1" parent="1">
          <mxGeometry x="100" y="240" width="140" height="80" as="geometry" />
        </mxCell>
        <mxCell id="azTU9I2MzFIt4tfLFUkZ-2" value="ANALOG_01_H&lt;br&gt;[8-15]&lt;br&gt;&lt;b&gt;8 bits&lt;/b&gt;" style="shape=hexagon;perimeter=hexagonPerimeter2;whiteSpace=wrap;html=1;fixedSize=1;fillColor=#f8cecc;strokeColor=#b85450;" vertex="1" parent="1">
          <mxGeometry x="240" y="240" width="120" height="80" as="geometry" />
        </mxCell>
        <mxCell id="azTU9I2MzFIt4tfLFUkZ-3" value="ANALOG_01_L&lt;br&gt;[16-23]&lt;br&gt;&lt;b&gt;8 bits&lt;/b&gt;" style="shape=hexagon;perimeter=hexagonPerimeter2;whiteSpace=wrap;html=1;fixedSize=1;fillColor=#f8cecc;strokeColor=#b85450;" vertex="1" parent="1">
          <mxGeometry x="360" y="240" width="120" height="80" as="geometry" />
        </mxCell>
        <mxCell id="azTU9I2MzFIt4tfLFUkZ-4" value="ANALOG_02_H&lt;br&gt;[24-31]&lt;br&gt;&lt;b&gt;8 bits&lt;/b&gt;" style="shape=hexagon;perimeter=hexagonPerimeter2;whiteSpace=wrap;html=1;fixedSize=1;fillColor=#d5e8d4;strokeColor=#82b366;" vertex="1" parent="1">
          <mxGeometry x="480" y="240" width="120" height="80" as="geometry" />
        </mxCell>
        <mxCell id="azTU9I2MzFIt4tfLFUkZ-5" value="ANALOG_02&lt;span style=&quot;background-color: transparent; color: light-dark(rgb(0, 0, 0), rgb(255, 255, 255));&quot;&gt;_L&lt;br&gt;&lt;/span&gt;[32-39]&lt;br&gt;&lt;b&gt;8 bits&lt;/b&gt;" style="shape=hexagon;perimeter=hexagonPerimeter2;whiteSpace=wrap;html=1;fixedSize=1;fillColor=#d5e8d4;strokeColor=#82b366;" vertex="1" parent="1">
          <mxGeometry x="600" y="240" width="120" height="80" as="geometry" />
        </mxCell>
        <mxCell id="azTU9I2MzFIt4tfLFUkZ-6" value="ANALOG_03_H&lt;br&gt;[40-47]&lt;br&gt;&lt;b&gt;8 bits&lt;/b&gt;" style="shape=hexagon;perimeter=hexagonPerimeter2;whiteSpace=wrap;html=1;fixedSize=1;fillColor=#dae8fc;strokeColor=#6c8ebf;" vertex="1" parent="1">
          <mxGeometry x="720" y="240" width="120" height="80" as="geometry" />
        </mxCell>
        <mxCell id="azTU9I2MzFIt4tfLFUkZ-7" value="ANALOG_03&lt;span style=&quot;background-color: transparent; color: light-dark(rgb(0, 0, 0), rgb(255, 255, 255));&quot;&gt;_L&lt;br&gt;&lt;/span&gt;[48-55]&lt;br&gt;&lt;b&gt;8 bits&lt;/b&gt;" style="shape=hexagon;perimeter=hexagonPerimeter2;whiteSpace=wrap;html=1;fixedSize=1;fillColor=#dae8fc;strokeColor=#6c8ebf;" vertex="1" parent="1">
          <mxGeometry x="840" y="240" width="120" height="80" as="geometry" />
        </mxCell>
        <mxCell id="azTU9I2MzFIt4tfLFUkZ-8" value="BMP280_RES&lt;br&gt;[64-66]&lt;br&gt;&lt;b&gt;3 bits&lt;/b&gt;" style="shape=hexagon;perimeter=hexagonPerimeter2;whiteSpace=wrap;html=1;fixedSize=1;fillColor=#ffcc99;strokeColor=#36393d;" vertex="1" parent="1">
          <mxGeometry x="1200" y="240" width="120" height="80" as="geometry" />
        </mxCell>
        <mxCell id="azTU9I2MzFIt4tfLFUkZ-9" value="BMP208_H&lt;span style=&quot;background-color: transparent; color: light-dark(rgb(0, 0, 0), rgb(255, 255, 255));&quot;&gt;1&lt;br&gt;&lt;/span&gt;[72-79]&lt;br&gt;&lt;b&gt;1B&lt;/b&gt;&lt;span style=&quot;background-color: transparent; color: light-dark(rgb(0, 0, 0), rgb(255, 255, 255));&quot;&gt;&lt;/span&gt;" style="shape=hexagon;perimeter=hexagonPerimeter2;whiteSpace=wrap;html=1;fixedSize=1;fillColor=#ffcc99;strokeColor=#36393d;" vertex="1" parent="1">
          <mxGeometry x="1440" y="240" width="120" height="80" as="geometry" />
        </mxCell>
        <mxCell id="azTU9I2MzFIt4tfLFUkZ-10" value="BMP208_L&lt;br&gt;[80-87]&lt;br&gt;&lt;b&gt;1B&lt;/b&gt;&lt;span style=&quot;background-color: transparent; color: light-dark(rgb(0, 0, 0), rgb(255, 255, 255));&quot;&gt;&lt;/span&gt;" style="shape=hexagon;perimeter=hexagonPerimeter2;whiteSpace=wrap;html=1;fixedSize=1;fillColor=#ffcc99;strokeColor=#36393d;" vertex="1" parent="1">
          <mxGeometry x="1560" y="240" width="120" height="80" as="geometry" />
        </mxCell>
        <mxCell id="azTU9I2MzFIt4tfLFUkZ-12" value="STAND-BY&lt;br&gt;1" style="rounded=0;whiteSpace=wrap;html=1;strokeColor=none;" vertex="1" parent="1">
          <mxGeometry x="40" y="240" width="80" height="80" as="geometry" />
        </mxCell>
        <mxCell id="azTU9I2MzFIt4tfLFUkZ-13" value="000 = 16 BITS&lt;br&gt;001 = 17 BITS&lt;br&gt;010 = 18 BITS&lt;br&gt;011 = 19 BITS&lt;br&gt;100 = 20 BITS" style="text;html=1;align=center;verticalAlign=middle;resizable=0;points=[];autosize=1;strokeColor=none;fillColor=none;fontStyle=2" vertex="1" parent="1">
          <mxGeometry x="1210" y="330" width="100" height="90" as="geometry" />
        </mxCell>
        <mxCell id="azTU9I2MzFIt4tfLFUkZ-14" value="Byte 03" style="rounded=0;whiteSpace=wrap;html=1;" vertex="1" parent="1">
          <mxGeometry x="360" y="160" width="120" height="20" as="geometry" />
        </mxCell>
        <mxCell id="azTU9I2MzFIt4tfLFUkZ-15" value="Byte 02" style="rounded=0;whiteSpace=wrap;html=1;" vertex="1" parent="1">
          <mxGeometry x="240" y="160" width="120" height="20" as="geometry" />
        </mxCell>
        <mxCell id="azTU9I2MzFIt4tfLFUkZ-16" value="Byte 01" style="rounded=0;whiteSpace=wrap;html=1;" vertex="1" parent="1">
          <mxGeometry x="120" y="160" width="120" height="20" as="geometry" />
        </mxCell>
        <mxCell id="azTU9I2MzFIt4tfLFUkZ-17" value="Byte 06" style="rounded=0;whiteSpace=wrap;html=1;" vertex="1" parent="1">
          <mxGeometry x="720" y="160" width="120" height="20" as="geometry" />
        </mxCell>
        <mxCell id="azTU9I2MzFIt4tfLFUkZ-18" value="Byte 05" style="rounded=0;whiteSpace=wrap;html=1;" vertex="1" parent="1">
          <mxGeometry x="600" y="160" width="120" height="20" as="geometry" />
        </mxCell>
        <mxCell id="azTU9I2MzFIt4tfLFUkZ-19" value="Byte 04" style="rounded=0;whiteSpace=wrap;html=1;" vertex="1" parent="1">
          <mxGeometry x="480" y="160" width="120" height="20" as="geometry" />
        </mxCell>
        <mxCell id="azTU9I2MzFIt4tfLFUkZ-20" value="Byte 07" style="rounded=0;whiteSpace=wrap;html=1;" vertex="1" parent="1">
          <mxGeometry x="840" y="160" width="120" height="20" as="geometry" />
        </mxCell>
        <mxCell id="azTU9I2MzFIt4tfLFUkZ-22" value="Byte 09" style="rounded=0;whiteSpace=wrap;html=1;" vertex="1" parent="1">
          <mxGeometry x="1080" y="160" width="360" height="20" as="geometry" />
        </mxCell>
        <mxCell id="azTU9I2MzFIt4tfLFUkZ-23" value="BMP208_H2&lt;span style=&quot;background-color: transparent; color: light-dark(rgb(0, 0, 0), rgb(255, 255, 255));&quot;&gt;&lt;br&gt;&lt;/span&gt;[68-71]&lt;br&gt;&lt;b&gt;4 bits&lt;/b&gt;" style="shape=hexagon;perimeter=hexagonPerimeter2;whiteSpace=wrap;html=1;fixedSize=1;fillColor=#ffcc99;strokeColor=#36393d;" vertex="1" parent="1">
          <mxGeometry x="1320" y="240" width="120" height="80" as="geometry" />
        </mxCell>
        <mxCell id="azTU9I2MzFIt4tfLFUkZ-24" value="BMP208_MED&lt;span style=&quot;background-color: transparent; color: light-dark(rgb(0, 0, 0), rgb(255, 255, 255));&quot;&gt;&lt;br&gt;&lt;/span&gt;[67]&lt;br&gt;&lt;b&gt;1 bit&lt;/b&gt;" style="shape=hexagon;perimeter=hexagonPerimeter2;whiteSpace=wrap;html=1;fixedSize=1;fillColor=#ffcc99;strokeColor=#36393d;" vertex="1" parent="1">
          <mxGeometry x="1080" y="240" width="120" height="80" as="geometry" />
        </mxCell>
        <mxCell id="azTU9I2MzFIt4tfLFUkZ-25" value="0 = APAGADO&lt;br&gt;1 = ENCENDIDO&lt;br&gt;&lt;div&gt;&lt;br&gt;&lt;/div&gt;" style="text;html=1;align=left;verticalAlign=middle;resizable=0;points=[];autosize=1;strokeColor=none;fillColor=none;fontStyle=2" vertex="1" parent="1">
          <mxGeometry x="1100" y="330" width="120" height="60" as="geometry" />
        </mxCell>
        <mxCell id="azTU9I2MzFIt4tfLFUkZ-26" value="Byte 10" style="rounded=0;whiteSpace=wrap;html=1;" vertex="1" parent="1">
          <mxGeometry x="1440" y="160" width="120" height="20" as="geometry" />
        </mxCell>
        <mxCell id="azTU9I2MzFIt4tfLFUkZ-28" value="Byte 11" style="rounded=0;whiteSpace=wrap;html=1;" vertex="1" parent="1">
          <mxGeometry x="1560" y="160" width="120" height="20" as="geometry" />
        </mxCell>
        <mxCell id="azTU9I2MzFIt4tfLFUkZ-29" value="&lt;b&gt;SENSOR BMP280 -TEMPERATURA: &lt;/b&gt;&lt;br&gt;24 BITS" style="rounded=0;whiteSpace=wrap;html=1;strokeWidth=2;shadow=1;" vertex="1" parent="1">
          <mxGeometry x="1080" y="80" width="600" height="50" as="geometry" />
        </mxCell>
        <mxCell id="azTU9I2MzFIt4tfLFUkZ-30" value="&lt;b&gt;ENTRADA ANALÓGICA 03: &lt;/b&gt;&lt;br&gt;16 BITS" style="rounded=0;whiteSpace=wrap;html=1;strokeWidth=2;shadow=1;" vertex="1" parent="1">
          <mxGeometry x="720" y="80" width="240" height="50" as="geometry" />
        </mxCell>
        <mxCell id="azTU9I2MzFIt4tfLFUkZ-31" value="&lt;b&gt;ENTRADA ANALÓGICA 02: &lt;/b&gt;&lt;br&gt;16 BITS" style="rounded=0;whiteSpace=wrap;html=1;strokeWidth=2;shadow=1;" vertex="1" parent="1">
          <mxGeometry x="480" y="80" width="240" height="50" as="geometry" />
        </mxCell>
        <mxCell id="azTU9I2MzFIt4tfLFUkZ-32" value="&lt;b&gt;ENTRADA ANALÓGICA 01: &lt;/b&gt;&lt;br&gt;16 BITS" style="rounded=0;whiteSpace=wrap;html=1;strokeWidth=2;shadow=1;" vertex="1" parent="1">
          <mxGeometry x="240" y="80" width="240" height="50" as="geometry" />
        </mxCell>
        <mxCell id="azTU9I2MzFIt4tfLFUkZ-33" value="DIGITAL_INPUTS&lt;br&gt;[56-63]&lt;br&gt;&lt;b&gt;8 bits&lt;/b&gt;" style="shape=hexagon;perimeter=hexagonPerimeter2;whiteSpace=wrap;html=1;fixedSize=1;fillColor=#cdeb8b;strokeColor=#36393d;" vertex="1" parent="1">
          <mxGeometry x="960" y="240" width="120" height="80" as="geometry" />
        </mxCell>
        <mxCell id="azTU9I2MzFIt4tfLFUkZ-34" value="&lt;b&gt;ENTRADAS DIGITALES: &lt;/b&gt;&lt;br&gt;8 BITS" style="rounded=0;whiteSpace=wrap;html=1;strokeWidth=2;shadow=1;" vertex="1" parent="1">
          <mxGeometry x="960" y="80" width="120" height="50" as="geometry" />
        </mxCell>
        <mxCell id="azTU9I2MzFIt4tfLFUkZ-35" value="Byte 08" style="rounded=0;whiteSpace=wrap;html=1;" vertex="1" parent="1">
          <mxGeometry x="960" y="160" width="120" height="20" as="geometry" />
        </mxCell>
        <mxCell id="azTU9I2MzFIt4tfLFUkZ-38" value="&lt;b&gt;START&lt;/b&gt;" style="rounded=0;whiteSpace=wrap;html=1;strokeWidth=2;shadow=1;" vertex="1" parent="1">
          <mxGeometry x="120" y="80" width="120" height="50" as="geometry" />
        </mxCell>
        <mxCell id="azTU9I2MzFIt4tfLFUkZ-40" value="" style="endArrow=none;html=1;rounded=0;entryX=1;entryY=0;entryDx=0;entryDy=0;exitX=1;exitY=1;exitDx=0;exitDy=0;strokeWidth=3;" edge="1" parent="1" source="azTU9I2MzFIt4tfLFUkZ-12" target="azTU9I2MzFIt4tfLFUkZ-12">
          <mxGeometry width="50" height="50" relative="1" as="geometry">
            <mxPoint x="100" y="320" as="sourcePoint" />
            <mxPoint x="150" y="270" as="targetPoint" />
          </mxGeometry>
        </mxCell>
        <mxCell id="azTU9I2MzFIt4tfLFUkZ-43" value="" style="endArrow=none;html=1;rounded=0;entryX=0.173;entryY=-0.01;entryDx=0;entryDy=0;strokeWidth=3;entryPerimeter=0;" edge="1" parent="1">
          <mxGeometry width="50" height="50" relative="1" as="geometry">
            <mxPoint x="40" y="240" as="sourcePoint" />
            <mxPoint x="120.75999999999999" y="239.20000000000005" as="targetPoint" />
          </mxGeometry>
        </mxCell>
        <mxCell id="azTU9I2MzFIt4tfLFUkZ-45" value="" style="endArrow=none;html=1;rounded=0;strokeWidth=3;targetPerimeterSpacing=0;" edge="1" parent="1">
          <mxGeometry width="50" height="50" relative="1" as="geometry">
            <mxPoint x="120" y="320" as="sourcePoint" />
            <mxPoint x="220" y="320" as="targetPoint" />
          </mxGeometry>
        </mxCell>
        <mxCell id="azTU9I2MzFIt4tfLFUkZ-46" value="" style="triangle;whiteSpace=wrap;html=1;rotation=90;fillColor=#FFFFFF;" vertex="1" parent="1">
          <mxGeometry x="110" y="272.81" width="20" height="14.38" as="geometry" />
        </mxCell>
        <mxCell id="azTU9I2MzFIt4tfLFUkZ-49" value="CRC-16&lt;br&gt;[96-103]&lt;br&gt;&lt;b&gt;1B&lt;/b&gt;&lt;span style=&quot;background-color: transparent; color: light-dark(rgb(0, 0, 0), rgb(255, 255, 255));&quot;&gt;&lt;/span&gt;" style="shape=hexagon;perimeter=hexagonPerimeter2;whiteSpace=wrap;html=1;fixedSize=1;fillColor=#eeeeee;strokeColor=#36393d;" vertex="1" parent="1">
          <mxGeometry x="2400" y="240" width="140" height="80" as="geometry" />
        </mxCell>
        <mxCell id="azTU9I2MzFIt4tfLFUkZ-50" value="Byte 15" style="rounded=0;whiteSpace=wrap;html=1;" vertex="1" parent="1">
          <mxGeometry x="2280" y="160" width="120" height="20" as="geometry" />
        </mxCell>
        <mxCell id="azTU9I2MzFIt4tfLFUkZ-51" value="STAND-BY&lt;br&gt;1" style="rounded=0;whiteSpace=wrap;html=1;strokeColor=none;" vertex="1" parent="1">
          <mxGeometry x="2520" y="240" width="80" height="80" as="geometry" />
        </mxCell>
        <mxCell id="azTU9I2MzFIt4tfLFUkZ-52" value="" style="endArrow=none;html=1;rounded=0;strokeWidth=3;" edge="1" parent="1">
          <mxGeometry width="50" height="50" relative="1" as="geometry">
            <mxPoint x="2519" y="241" as="sourcePoint" />
            <mxPoint x="2600" y="240" as="targetPoint" />
          </mxGeometry>
        </mxCell>
        <mxCell id="azTU9I2MzFIt4tfLFUkZ-53" value="" style="endArrow=none;html=1;rounded=0;strokeWidth=3;targetPerimeterSpacing=0;exitX=0;exitY=1;exitDx=0;exitDy=0;entryX=0.156;entryY=1.002;entryDx=0;entryDy=0;entryPerimeter=0;" edge="1" parent="1" source="azTU9I2MzFIt4tfLFUkZ-51" target="azTU9I2MzFIt4tfLFUkZ-49">
          <mxGeometry width="50" height="50" relative="1" as="geometry">
            <mxPoint x="2500" y="370" as="sourcePoint" />
            <mxPoint x="2430" y="360" as="targetPoint" />
          </mxGeometry>
        </mxCell>
        <mxCell id="azTU9I2MzFIt4tfLFUkZ-54" value="" style="endArrow=none;html=1;rounded=0;strokeWidth=3;targetPerimeterSpacing=0;" edge="1" parent="1">
          <mxGeometry width="50" height="50" relative="1" as="geometry">
            <mxPoint x="2520" y="320" as="sourcePoint" />
            <mxPoint x="2520" y="240" as="targetPoint" />
          </mxGeometry>
        </mxCell>
        <mxCell id="rbr-ATORGnVGHrp9ssJ4-2" value="Byte 16" style="rounded=0;whiteSpace=wrap;html=1;" vertex="1" parent="1">
          <mxGeometry x="2400" y="160" width="120" height="20" as="geometry" />
        </mxCell>
        <mxCell id="rbr-ATORGnVGHrp9ssJ4-3" value="&lt;b&gt;CRC-16&lt;br&gt;(0XA001)&lt;/b&gt;&lt;br&gt;16 BITS" style="rounded=0;whiteSpace=wrap;html=1;strokeWidth=2;shadow=1;" vertex="1" parent="1">
          <mxGeometry x="2280" y="80" width="240" height="50" as="geometry" />
        </mxCell>
        <mxCell id="rbr-ATORGnVGHrp9ssJ4-4" value="CRC-16&lt;br&gt;[88-95]&lt;br&gt;&lt;b&gt;1B&lt;/b&gt;&lt;span style=&quot;background-color: transparent; color: light-dark(rgb(0, 0, 0), rgb(255, 255, 255));&quot;&gt;&lt;/span&gt;" style="shape=hexagon;perimeter=hexagonPerimeter2;whiteSpace=wrap;html=1;fixedSize=1;fillColor=#eeeeee;strokeColor=#36393d;" vertex="1" parent="1">
          <mxGeometry x="2280" y="240" width="120" height="80" as="geometry" />
        </mxCell>
        <mxCell id="rbr-ATORGnVGHrp9ssJ4-5" value="DATA" style="rounded=0;whiteSpace=wrap;html=1;" vertex="1" parent="1">
          <mxGeometry x="1320" y="180" width="360" height="20" as="geometry" />
        </mxCell>
        <mxCell id="rbr-ATORGnVGHrp9ssJ4-6" value="ESTADO" style="rounded=0;whiteSpace=wrap;html=1;" vertex="1" parent="1">
          <mxGeometry x="1080" y="180" width="120" height="20" as="geometry" />
        </mxCell>
        <mxCell id="rbr-ATORGnVGHrp9ssJ4-7" value="RESOLUCION" style="rounded=0;whiteSpace=wrap;html=1;" vertex="1" parent="1">
          <mxGeometry x="1200" y="180" width="120" height="20" as="geometry" />
        </mxCell>
        <mxCell id="rbr-ATORGnVGHrp9ssJ4-11" value="" style="endArrow=classic;startArrow=classic;html=1;rounded=0;" edge="1" parent="1">
          <mxGeometry width="50" height="50" relative="1" as="geometry">
            <mxPoint x="120" y="359.7" as="sourcePoint" />
            <mxPoint x="240" y="359.7" as="targetPoint" />
          </mxGeometry>
        </mxCell>
        <mxCell id="rbr-ATORGnVGHrp9ssJ4-12" value="Tbyte = 69.44 [us]" style="edgeLabel;html=1;align=center;verticalAlign=middle;resizable=0;points=[];" connectable="0" vertex="1" parent="rbr-ATORGnVGHrp9ssJ4-11">
          <mxGeometry x="-0.1077" y="-1" relative="1" as="geometry">
            <mxPoint x="6" y="-11" as="offset" />
          </mxGeometry>
        </mxCell>
        <mxCell id="rbr-ATORGnVGHrp9ssJ4-13" value="" style="endArrow=none;dashed=1;html=1;rounded=0;entryX=0;entryY=0.5;entryDx=0;entryDy=0;" edge="1" parent="1" target="azTU9I2MzFIt4tfLFUkZ-2">
          <mxGeometry width="50" height="50" relative="1" as="geometry">
            <mxPoint x="240" y="380" as="sourcePoint" />
            <mxPoint x="270" y="330" as="targetPoint" />
          </mxGeometry>
        </mxCell>
        <mxCell id="rbr-ATORGnVGHrp9ssJ4-14" value="" style="endArrow=none;dashed=1;html=1;rounded=0;entryX=0;entryY=0.5;entryDx=0;entryDy=0;" edge="1" parent="1">
          <mxGeometry width="50" height="50" relative="1" as="geometry">
            <mxPoint x="120" y="460" as="sourcePoint" />
            <mxPoint x="120" y="320" as="targetPoint" />
          </mxGeometry>
        </mxCell>
        <mxCell id="rbr-ATORGnVGHrp9ssJ4-15" value="" style="endArrow=classic;startArrow=classic;html=1;rounded=0;" edge="1" parent="1">
          <mxGeometry width="50" height="50" relative="1" as="geometry">
            <mxPoint x="120" y="440" as="sourcePoint" />
            <mxPoint x="2520" y="440" as="targetPoint" />
          </mxGeometry>
        </mxCell>
        <mxCell id="rbr-ATORGnVGHrp9ssJ4-16" value="MENSAJE = 16 Bytes = 1111.04 [us]" style="edgeLabel;html=1;align=center;verticalAlign=middle;resizable=0;points=[];" connectable="0" vertex="1" parent="rbr-ATORGnVGHrp9ssJ4-15">
          <mxGeometry x="-0.1077" y="-1" relative="1" as="geometry">
            <mxPoint x="-703" y="-11" as="offset" />
          </mxGeometry>
        </mxCell>
        <mxCell id="rbr-ATORGnVGHrp9ssJ4-17" value="" style="endArrow=none;dashed=1;html=1;rounded=0;entryX=0;entryY=0.5;entryDx=0;entryDy=0;" edge="1" parent="1">
          <mxGeometry width="50" height="50" relative="1" as="geometry">
            <mxPoint x="2518.5699999999997" y="460" as="sourcePoint" />
            <mxPoint x="2518.5699999999997" y="320" as="targetPoint" />
          </mxGeometry>
        </mxCell>
        <mxCell id="031KbTOEbNjWiWETNv-L-1" value="BMP280_RES&lt;br&gt;[64-66]&lt;br&gt;&lt;b&gt;3 bits&lt;/b&gt;" style="shape=hexagon;perimeter=hexagonPerimeter2;whiteSpace=wrap;html=1;fixedSize=1;fillColor=#e1d5e7;strokeColor=#9673a6;" vertex="1" parent="1">
          <mxGeometry x="1800" y="240" width="120" height="80" as="geometry" />
        </mxCell>
        <mxCell id="031KbTOEbNjWiWETNv-L-2" value="BMP208_H&lt;span style=&quot;background-color: transparent; color: light-dark(rgb(0, 0, 0), rgb(255, 255, 255));&quot;&gt;1&lt;br&gt;&lt;/span&gt;[72-79]&lt;br&gt;&lt;b&gt;1B&lt;/b&gt;&lt;span style=&quot;background-color: transparent; color: light-dark(rgb(0, 0, 0), rgb(255, 255, 255));&quot;&gt;&lt;/span&gt;" style="shape=hexagon;perimeter=hexagonPerimeter2;whiteSpace=wrap;html=1;fixedSize=1;fillColor=#e1d5e7;strokeColor=#9673a6;" vertex="1" parent="1">
          <mxGeometry x="2040" y="240" width="120" height="80" as="geometry" />
        </mxCell>
        <mxCell id="031KbTOEbNjWiWETNv-L-3" value="BMP208_L&lt;br&gt;[80-87]&lt;br&gt;&lt;b&gt;1B&lt;/b&gt;&lt;span style=&quot;background-color: transparent; color: light-dark(rgb(0, 0, 0), rgb(255, 255, 255));&quot;&gt;&lt;/span&gt;" style="shape=hexagon;perimeter=hexagonPerimeter2;whiteSpace=wrap;html=1;fixedSize=1;fillColor=#e1d5e7;strokeColor=#9673a6;" vertex="1" parent="1">
          <mxGeometry x="2160" y="240" width="120" height="80" as="geometry" />
        </mxCell>
        <mxCell id="031KbTOEbNjWiWETNv-L-4" value="000 = 16 BITS&lt;br&gt;001 = 17 BITS&lt;br&gt;010 = 18 BITS&lt;br&gt;011 = 19 BITS&lt;br&gt;100 = 20 BITS" style="text;html=1;align=center;verticalAlign=middle;resizable=0;points=[];autosize=1;strokeColor=none;fillColor=none;fontStyle=2" vertex="1" parent="1">
          <mxGeometry x="1810" y="330" width="100" height="90" as="geometry" />
        </mxCell>
        <mxCell id="031KbTOEbNjWiWETNv-L-5" value="Byte 12" style="rounded=0;whiteSpace=wrap;html=1;" vertex="1" parent="1">
          <mxGeometry x="1680" y="160" width="360" height="20" as="geometry" />
        </mxCell>
        <mxCell id="031KbTOEbNjWiWETNv-L-6" value="BMP208_H2&lt;span style=&quot;background-color: transparent; color: light-dark(rgb(0, 0, 0), rgb(255, 255, 255));&quot;&gt;&lt;br&gt;&lt;/span&gt;[68-71]&lt;br&gt;&lt;b&gt;4 bits&lt;/b&gt;" style="shape=hexagon;perimeter=hexagonPerimeter2;whiteSpace=wrap;html=1;fixedSize=1;fillColor=#e1d5e7;strokeColor=#9673a6;" vertex="1" parent="1">
          <mxGeometry x="1920" y="240" width="120" height="80" as="geometry" />
        </mxCell>
        <mxCell id="031KbTOEbNjWiWETNv-L-7" value="BMP208_MED&lt;span style=&quot;background-color: transparent; color: light-dark(rgb(0, 0, 0), rgb(255, 255, 255));&quot;&gt;&lt;br&gt;&lt;/span&gt;[67]&lt;br&gt;&lt;b&gt;1 bit&lt;/b&gt;" style="shape=hexagon;perimeter=hexagonPerimeter2;whiteSpace=wrap;html=1;fixedSize=1;fillColor=#e1d5e7;strokeColor=#9673a6;" vertex="1" parent="1">
          <mxGeometry x="1680" y="240" width="120" height="80" as="geometry" />
        </mxCell>
        <mxCell id="031KbTOEbNjWiWETNv-L-8" value="0 = APAGADO.&lt;br&gt;1 = ENCENDIDO&lt;div&gt;&lt;br&gt;&lt;/div&gt;" style="text;html=1;align=left;verticalAlign=middle;resizable=0;points=[];autosize=1;strokeColor=none;fillColor=none;fontStyle=2" vertex="1" parent="1">
          <mxGeometry x="1700" y="330" width="120" height="60" as="geometry" />
        </mxCell>
        <mxCell id="031KbTOEbNjWiWETNv-L-9" value="Byte 13" style="rounded=0;whiteSpace=wrap;html=1;" vertex="1" parent="1">
          <mxGeometry x="2040" y="160" width="120" height="20" as="geometry" />
        </mxCell>
        <mxCell id="031KbTOEbNjWiWETNv-L-10" value="Byte 14" style="rounded=0;whiteSpace=wrap;html=1;" vertex="1" parent="1">
          <mxGeometry x="2160" y="160" width="120" height="20" as="geometry" />
        </mxCell>
        <mxCell id="031KbTOEbNjWiWETNv-L-11" value="&lt;b&gt;SENSOR BMP280-PRESION: &lt;/b&gt;&lt;br&gt;24 BITS" style="rounded=0;whiteSpace=wrap;html=1;strokeWidth=2;shadow=1;" vertex="1" parent="1">
          <mxGeometry x="1680" y="80" width="600" height="50" as="geometry" />
        </mxCell>
        <mxCell id="031KbTOEbNjWiWETNv-L-12" value="DATA" style="rounded=0;whiteSpace=wrap;html=1;" vertex="1" parent="1">
          <mxGeometry x="1920" y="180" width="360" height="20" as="geometry" />
        </mxCell>
        <mxCell id="031KbTOEbNjWiWETNv-L-13" value="ESTADO" style="rounded=0;whiteSpace=wrap;html=1;" vertex="1" parent="1">
          <mxGeometry x="1680" y="180" width="120" height="20" as="geometry" />
        </mxCell>
        <mxCell id="031KbTOEbNjWiWETNv-L-14" value="RESOLUCION" style="rounded=0;whiteSpace=wrap;html=1;" vertex="1" parent="1">
          <mxGeometry x="1800" y="180" width="120" height="20" as="geometry" />
        </mxCell>
      </root>
    </mxGraphModel>
  </diagram>
</mxfile>
